<mxfile host="app.diagrams.net" modified="2020-03-22T04:31:59.665Z" agent="Mozilla/5.0 (Macintosh; Intel Mac OS X 10_14_6) AppleWebKit/537.36 (KHTML, like Gecko) Chrome/80.0.3987.149 Safari/537.36" etag="fmT2uj_qvNLN2Gf6UOeS" version="12.8.8" type="github">
  <diagram id="mk-U-DFlBIRW2ogVBJvf" name="Page-1">
    <mxGraphModel dx="807" dy="691" grid="1" gridSize="10" guides="1" tooltips="1" connect="1" arrows="1" fold="1" page="1" pageScale="1" pageWidth="827" pageHeight="1169" math="0" shadow="0">
      <root>
        <mxCell id="0" />
        <mxCell id="1" parent="0" />
        <mxCell id="mcjM3WxaXfCdPP4OPlHP-7" style="rounded=0;orthogonalLoop=1;jettySize=auto;html=1;exitX=0;exitY=0.5;exitDx=0;exitDy=0;entryX=0.5;entryY=0;entryDx=0;entryDy=0;" edge="1" parent="1" source="mcjM3WxaXfCdPP4OPlHP-1" target="mcjM3WxaXfCdPP4OPlHP-3">
          <mxGeometry relative="1" as="geometry" />
        </mxCell>
        <mxCell id="mcjM3WxaXfCdPP4OPlHP-8" style="rounded=0;orthogonalLoop=1;jettySize=auto;html=1;exitX=1;exitY=0.5;exitDx=0;exitDy=0;entryX=0.5;entryY=0;entryDx=0;entryDy=0;" edge="1" parent="1" source="mcjM3WxaXfCdPP4OPlHP-1" target="mcjM3WxaXfCdPP4OPlHP-4">
          <mxGeometry relative="1" as="geometry" />
        </mxCell>
        <mxCell id="mcjM3WxaXfCdPP4OPlHP-9" style="rounded=0;orthogonalLoop=1;jettySize=auto;html=1;exitX=0.5;exitY=1;exitDx=0;exitDy=0;" edge="1" parent="1" source="mcjM3WxaXfCdPP4OPlHP-1" target="mcjM3WxaXfCdPP4OPlHP-2">
          <mxGeometry relative="1" as="geometry" />
        </mxCell>
        <mxCell id="mcjM3WxaXfCdPP4OPlHP-10" style="rounded=0;orthogonalLoop=1;jettySize=auto;html=1;exitX=0.75;exitY=1;exitDx=0;exitDy=0;entryX=0.75;entryY=0;entryDx=0;entryDy=0;" edge="1" parent="1" source="mcjM3WxaXfCdPP4OPlHP-1" target="mcjM3WxaXfCdPP4OPlHP-5">
          <mxGeometry relative="1" as="geometry" />
        </mxCell>
        <mxCell id="mcjM3WxaXfCdPP4OPlHP-1" value="应用" style="rounded=1;whiteSpace=wrap;html=1;" vertex="1" parent="1">
          <mxGeometry x="330" y="340" width="120" height="60" as="geometry" />
        </mxCell>
        <mxCell id="mcjM3WxaXfCdPP4OPlHP-13" style="edgeStyle=none;rounded=0;orthogonalLoop=1;jettySize=auto;html=1;exitX=0.5;exitY=1;exitDx=0;exitDy=0;entryX=0.5;entryY=0;entryDx=0;entryDy=0;" edge="1" parent="1" source="mcjM3WxaXfCdPP4OPlHP-2" target="mcjM3WxaXfCdPP4OPlHP-5">
          <mxGeometry relative="1" as="geometry" />
        </mxCell>
        <mxCell id="mcjM3WxaXfCdPP4OPlHP-2" value="TBase" style="rounded=1;whiteSpace=wrap;html=1;" vertex="1" parent="1">
          <mxGeometry x="270" y="450" width="120" height="60" as="geometry" />
        </mxCell>
        <mxCell id="mcjM3WxaXfCdPP4OPlHP-11" style="rounded=0;orthogonalLoop=1;jettySize=auto;html=1;exitX=0.5;exitY=1;exitDx=0;exitDy=0;entryX=0;entryY=0.5;entryDx=0;entryDy=0;" edge="1" parent="1" source="mcjM3WxaXfCdPP4OPlHP-3" target="mcjM3WxaXfCdPP4OPlHP-5">
          <mxGeometry relative="1" as="geometry" />
        </mxCell>
        <mxCell id="mcjM3WxaXfCdPP4OPlHP-3" value="DB" style="rounded=1;whiteSpace=wrap;html=1;" vertex="1" parent="1">
          <mxGeometry x="110" y="450" width="120" height="60" as="geometry" />
        </mxCell>
        <mxCell id="mcjM3WxaXfCdPP4OPlHP-12" style="rounded=0;orthogonalLoop=1;jettySize=auto;html=1;exitX=0.5;exitY=1;exitDx=0;exitDy=0;entryX=1;entryY=0.5;entryDx=0;entryDy=0;" edge="1" parent="1" source="mcjM3WxaXfCdPP4OPlHP-4" target="mcjM3WxaXfCdPP4OPlHP-5">
          <mxGeometry relative="1" as="geometry" />
        </mxCell>
        <mxCell id="mcjM3WxaXfCdPP4OPlHP-4" value="MsgBroker" style="rounded=1;whiteSpace=wrap;html=1;" vertex="1" parent="1">
          <mxGeometry x="460" y="460" width="120" height="60" as="geometry" />
        </mxCell>
        <mxCell id="mcjM3WxaXfCdPP4OPlHP-5" value="Server" style="rounded=1;whiteSpace=wrap;html=1;" vertex="1" parent="1">
          <mxGeometry x="330" y="570" width="120" height="60" as="geometry" />
        </mxCell>
        <mxCell id="mcjM3WxaXfCdPP4OPlHP-14" value="CPU" style="shape=document;whiteSpace=wrap;html=1;boundedLbl=1;" vertex="1" parent="1">
          <mxGeometry x="140" y="630" width="120" height="80" as="geometry" />
        </mxCell>
        <mxCell id="mcjM3WxaXfCdPP4OPlHP-15" value="Memory" style="shape=document;whiteSpace=wrap;html=1;boundedLbl=1;" vertex="1" parent="1">
          <mxGeometry x="294" y="720" width="120" height="80" as="geometry" />
        </mxCell>
        <mxCell id="mcjM3WxaXfCdPP4OPlHP-16" value="ThreadPool" style="shape=document;whiteSpace=wrap;html=1;boundedLbl=1;" vertex="1" parent="1">
          <mxGeometry x="470" y="720" width="120" height="80" as="geometry" />
        </mxCell>
        <mxCell id="mcjM3WxaXfCdPP4OPlHP-17" value="Disk" style="shape=document;whiteSpace=wrap;html=1;boundedLbl=1;" vertex="1" parent="1">
          <mxGeometry x="640" y="630" width="120" height="80" as="geometry" />
        </mxCell>
      </root>
    </mxGraphModel>
  </diagram>
</mxfile>
